<?xml version="1.0" standalone="no"?>
<!DOCTYPE svg PUBLIC "-//W3C//DTD SVG 20010904//EN"
 "http://www.w3.org/TR/2001/REC-SVG-20010904/DTD/svg10.dtd">
<svg version="1.0" xmlns="http://www.w3.org/2000/svg"
 width="260.000000pt" height="260.000000pt" viewBox="0 0 260.000000 260.000000"
 preserveAspectRatio="xMidYMid meet">
<metadata>
Created by potrace 1.11, written by Peter Selinger 2001-2013
</metadata>
<g transform="translate(0.000000,260.000000) scale(0.100000,-0.100000)"
fill="#000000" stroke="none">
<path d="M250 1500 c0 -38 4 -70 9 -70 4 0 8 26 8 58 l-1 57 1037 3 1037 2 0
-150 c0 -93 4 -150 10 -150 6 0 10 60 10 160 l0 160 -1055 0 -1055 0 0 -70z"/>
<path d="M550 1423 c0 -7 11 -20 24 -28 29 -19 66 -6 66 23 -1 16 -1 16 -11 0
-5 -10 -19 -18 -31 -18 -11 0 -27 8 -34 18 -8 10 -13 12 -14 5z"/>
<path d="M1210 1410 c0 -11 7 -20 15 -20 8 0 15 9 15 20 0 11 -7 20 -15 20 -8
0 -15 -9 -15 -20z"/>
<path d="M1289 1428 c-7 -23 -4 -38 7 -42 10 -4 14 2 14 19 0 14 -4 25 -10 25
-5 0 -10 -1 -11 -2z"/>
<path d="M1567 1423 c-13 -12 -7 -33 8 -33 8 0 15 9 15 20 0 20 -11 26 -23 13z"/>
<path d="M1637 1406 c3 -15 10 -23 18 -19 19 7 14 43 -6 43 -12 0 -15 -7 -12
-24z"/>
<path d="M1068 1413 c0 -5 -2 -12 -3 -18 -2 -5 -3 -18 -4 -27 -1 -11 -6 -15
-16 -12 -9 4 -15 0 -15 -10 0 -9 7 -16 15 -16 8 0 15 -3 16 -7 0 -5 1 -37 3
-73 1 -36 5 -71 10 -78 11 -19 76 -16 76 4 0 9 -6 14 -12 11 -7 -2 -21 0 -30
4 -13 7 -17 22 -16 74 1 61 3 65 24 65 36 0 39 20 5 26 -26 6 -31 11 -31 35 0
25 -17 42 -22 22z"/>
<path d="M183 1334 c-23 -23 -25 -31 -21 -86 4 -50 9 -64 29 -79 13 -11 29
-23 34 -27 6 -4 18 -11 28 -15 39 -15 8 -35 -43 -27 -8 1 -12 -1 -8 -5 14 -14
57 -13 69 1 14 17 5 44 -16 44 -8 0 -15 5 -15 10 0 6 6 10 13 10 19 0 50 36
44 52 -3 9 -7 7 -13 -7 -10 -26 -23 -35 -55 -35 -35 0 -48 18 -54 75 -5 56 6
82 41 95 31 12 61 -2 74 -33 7 -17 9 -18 9 -4 1 25 -35 57 -64 57 -14 0 -37
-12 -52 -26z"/>
<path d="M366 1344 c-9 -8 -16 -23 -15 -32 0 -13 2 -12 9 4 19 48 110 30 110
-21 0 -23 -4 -25 -45 -25 -49 0 -85 -25 -85 -59 0 -20 24 -50 41 -52 5 -1 15
-2 22 -3 17 -3 57 15 57 25 0 5 -11 4 -24 -2 -50 -23 -98 10 -76 52 10 18 26
23 75 22 36 -1 38 -3 32 -30 -2 -16 -1 -37 3 -48 6 -13 9 8 9 60 1 98 -13 125
-64 125 -18 0 -41 -7 -49 -16z"/>
<path d="M550 1342 c-18 -15 -22 -28 -22 -82 -1 -54 2 -66 22 -82 29 -23 51
-23 84 3 l26 21 -4 -38 c-8 -60 -40 -78 -106 -59 -24 7 -24 7 -5 -8 24 -19 82
-15 104 7 12 13 17 42 19 131 3 77 0 115 -7 115 -7 0 -9 -16 -6 -42 7 -69 -4
-107 -34 -123 -22 -11 -32 -11 -52 -2 -21 11 -24 20 -27 73 -2 45 1 64 12 73
23 19 48 20 74 5 26 -17 29 -12 6 10 -21 21 -57 20 -84 -2z"/>
<path d="M780 1353 c-8 -4 -20 -13 -27 -22 -11 -14 -12 -14 -13 2 0 10 -5 15
-10 12 -8 -5 -8 -11 0 -20 6 -7 7 -15 3 -18 -9 -6 -8 -136 1 -145 3 -3 6 26 6
64 0 76 18 111 57 117 12 2 26 6 29 10 9 8 -25 8 -46 0z"/>
<path d="M860 1260 c0 -57 2 -101 5 -98 7 7 8 188 1 196 -3 3 -6 -41 -6 -98z"/>
<path d="M1180 1288 c0 -85 14 -119 52 -129 21 -5 34 -2 55 14 22 18 26 19 20
4 -5 -12 -1 -17 13 -17 19 0 20 7 20 100 0 79 -3 100 -14 100 -10 0 -15 -19
-18 -75 -2 -41 -8 -79 -14 -85 -31 -31 -88 -6 -84 37 1 10 2 42 1 71 -1 39 -5
52 -16 52 -12 0 -15 -15 -15 -72z"/>
<path d="M1390 1260 c0 -82 3 -100 15 -100 17 0 17 3 16 75 0 59 20 95 54 95
30 0 42 18 19 27 -10 3 -30 -1 -46 -10 -24 -14 -28 -14 -28 -2 0 8 -7 15 -15
15 -12 0 -15 -18 -15 -100z"/>
<path d="M1538 1288 c-4 -95 10 -128 55 -128 18 0 39 6 46 13 11 10 14 10 18
0 3 -7 11 -13 19 -13 11 0 14 20 14 100 0 82 -3 100 -15 100 -12 0 -15 -15
-15 -74 0 -74 -5 -86 -42 -99 -35 -13 -50 15 -51 96 0 55 -4 77 -13 77 -8 0
-13 -23 -16 -72z"/>
<path d="M1749 1348 c-1 -7 -2 -53 -3 -101 -1 -72 1 -87 13 -85 12 2 16 20 17
70 1 71 11 92 45 101 35 9 49 -18 49 -99 0 -59 3 -74 15 -74 24 0 21 161 -3
183 -23 21 -61 22 -90 1 -20 -14 -22 -14 -22 0 0 19 -19 22 -21 4z"/>
<path d="M1945 1352 c-12 -13 11 -22 55 -22 l49 0 -54 -72 c-30 -40 -55 -79
-55 -85 0 -10 62 -13 275 -13 238 0 275 2 275 15 0 13 -35 15 -255 15 l-255 0
55 72 c30 39 55 75 55 79 0 4 -8 10 -17 13 -22 6 -121 5 -128 -2z"/>
<path d="M250 995 l0 -55 1053 2 1052 3 3 39 c2 21 -1 43 -7 49 -8 8 -11 -1
-11 -31 l0 -42 -1035 0 c-979 0 -1035 1 -1036 18 -1 9 -1 29 0 45 0 15 -3 27
-9 27 -5 0 -10 -25 -10 -55z"/>
</g>
</svg>
